HIERARCHY
ROOT Hips
{
  OFFSET 0 89.5177 0.535
  CHANNELS 6 Xposition Yposition Zposition Zrotation Xrotation Yrotation
  JOINT Spine
  {
    OFFSET 12.0259 -0.162855 1.69034e-005
    CHANNELS 3 Zrotation Xrotation Yrotation
    JOINT Spine1
    {
      OFFSET 15.3169 -0.0121922 0
      CHANNELS 3 Zrotation Xrotation Yrotation
      JOINT Spine2
      {
        OFFSET 15.3176 -0.0121908 0
        CHANNELS 3 Zrotation Xrotation Yrotation
        JOINT Neck
        {
          OFFSET 19.9142 1.56338 0
          CHANNELS 3 Zrotation Xrotation Yrotation
          JOINT Head
          {
            OFFSET 6.92651 0 0
            CHANNELS 3 Zrotation Xrotation Yrotation
            End Site
            {
              OFFSET 20.7666 0 0
            }
          }
          JOINT LeftShoulder
          {
            OFFSET -6.20654 0.708824 7.28219
            CHANNELS 3 Zrotation Xrotation Yrotation
            JOINT LeftArm
            {
              OFFSET 14.108 0 -1.52588e-005
              CHANNELS 3 Zrotation Xrotation Yrotation
              JOINT LeftForeArm
              {
                OFFSET 28.5802 0 0
                CHANNELS 3 Zrotation Xrotation Yrotation
                JOINT LeftHand
                {
                  OFFSET 27.092 0 0
                  CHANNELS 3 Zrotation Xrotation Yrotation
                  End Site
                  {
                    OFFSET 9.55928 -0.186424 0.145352
                  }
                }
              }
            }
          }
          JOINT RightShoulder
          {
            OFFSET -6.20654 0.708866 -7.28218
            CHANNELS 3 Zrotation Xrotation Yrotation
            JOINT RightArm
            {
              OFFSET 14.108 0 1.52588e-005
              CHANNELS 3 Zrotation Xrotation Yrotation
              JOINT RightForeArm
              {
                OFFSET 28.5802 0 0
                CHANNELS 3 Zrotation Xrotation Yrotation
                JOINT RightHand
                {
                  OFFSET 27.092 0 0
                  CHANNELS 3 Zrotation Xrotation Yrotation
                  End Site
                  {
                    OFFSET 9.55929 -0.186417 -0.145354
                  }
                }
              }
            }
          }
        }
      }
    }
  }
  JOINT LeftUpLeg
  {
    OFFSET 0.005 -0.535 8.837
    CHANNELS 3 Zrotation Xrotation Yrotation
    JOINT LeftLeg
    {
      OFFSET 39.9035 0 0
      CHANNELS 3 Zrotation Xrotation Yrotation
      JOINT LeftFoot
      {
        OFFSET 39.6689 0 0
        CHANNELS 3 Zrotation Xrotation Yrotation
        JOINT LeftToe
        {
          OFFSET 10.1624 13.6296 0
          CHANNELS 3 Zrotation Xrotation Yrotation
          End Site
          {
            OFFSET 8.38147 0 0
          }
        }
      }
    }
  }
  JOINT RightUpLeg
  {
    OFFSET 0.005 -0.535 -8.837
    CHANNELS 3 Zrotation Xrotation Yrotation
    JOINT RightLeg
    {
      OFFSET 39.9035 0 0
      CHANNELS 3 Zrotation Xrotation Yrotation
      JOINT RightFoot
      {
        OFFSET 39.6689 0 0
        CHANNELS 3 Zrotation Xrotation Yrotation
        JOINT RightToe
        {
          OFFSET 10.1624 13.6296 0
          CHANNELS 3 Zrotation Xrotation Yrotation
          End Site
          {
            OFFSET 8.38147 0 0
          }
        }
      }
    }
  }
}
MOTION
Frames:	11
Frame Time:	0.0333333
18.0742 81.1678 -71.9488 -88.4514 -16.6695 -170.142 5.83923 -0.813858 -3.49079 11.6207 -1.97652 -6.88207 11.6207 -1.97652 -6.88207 -8.29873e-012 -9.0191e-006 -5.27751e-005 2.18913 -22.7001 14.1035 179.437 1.68875 -71.5668 -9.8324 3.87489 46.9423 -51.9281 -1.59028e-015 -0 -72.4507 -48.7404 -81.7934 -178.596 4.53435 72.773 -17.0937 -0.306275 -64.6937 -30.4886 0 -0 -45.6153 40.6878 50.974 -14.8737 16.0383 -178.19 -51.2775 9.54166e-015 -0 23.8491 4.3717 -9.13341 90 7.95139e-016 -0 -8.93362 -13.6071 166.056 -70.7312 3.97569e-016 3.97569e-016 9.7958 -2.62208 5.35011 90 0 7.95139e-016 
22.1544 81.6399 -72.8042 -88.5686 -16.708 -171.059 5.78744 -1.34946 -3.24748 11.4951 -3.0169 -6.34542 11.4951 -3.0169 -6.34543 -8.30271e-012 -9.0191e-006 -5.27751e-005 0.932729 -22.2052 12.9641 179.349 2.06188 -72.4721 -12.0811 2.98669 49.8988 -58.8145 0 -3.97569e-016 -72.7702 -48.6939 -82.2636 -178.406 5.19184 72.9035 -17.9163 -4.62036 -62.6292 -32.8831 0 -4.77083e-015 -44.7036 41.0619 50.8609 -11.1305 15.1318 -177.607 -48.9366 -3.18055e-015 -4.77083e-015 22.8992 4.23853 -8.82897 90 -1.59028e-015 9.54166e-015 -15.8301 -14.4251 166.759 -72.4187 9.93923e-017 4.96962e-017 14.7518 -2.72043 5.56075 90 -7.95139e-016 7.95139e-016 
26.6145 82.5721 -73.5593 -88.6222 -16.1469 -172.33 5.72719 -1.86265 -2.86767 11.3643 -3.99955 -5.53986 11.3643 -3.99956 -5.53987 -8.30927e-012 -9.0191e-006 -5.27751e-005 -0.417019 -21.0227 11.5921 179.282 2.38309 -73.2283 -13.5269 3.43872 52.9033 -68.383 1.59028e-015 1.59028e-015 -73.3464 -48.9984 -82.839 -178.269 6.03765 73.9737 -20.8204 -10.27 -61.3562 -37.5081 6.36111e-015 2.38542e-015 -42.5133 42.3089 49.3135 -6.38666 14.352 -176.779 -44.9563 0 1.59028e-015 20.4444 4.01572 -8.33224 90 -1.59028e-015 -0 -21.2146 -16.1573 168.38 -69.2713 -1.11816e-015 -0 17.08 -1.36658 2.80599 90 3.18055e-015 9.93923e-016 
31.5193 83.8418 -74.2284 -88.9441 -14.9427 -173.509 5.55707 -2.29517 -2.52752 11.022 -4.82191 -4.82678 11.022 -4.82191 -4.82678 -8.30907e-012 -9.0191e-006 -5.27751e-005 -1.30159 -19.5713 10.2133 179.302 2.37816 -73.6445 -15.3835 5.49275 54.9937 -78.7229 0 -6.36111e-015 -72.8296 -49.0865 -81.8459 -178.197 6.91658 75.3502 -23.9802 -15.785 -61.2461 -42.4895 3.18055e-015 3.18055e-015 -41.4425 44.0794 48.8639 -0.939697 13.6748 -176.392 -39.4431 -9.54166e-015 -1.59028e-015 15.8393 3.62824 -7.49241 90 -1.59028e-015 3.18055e-015 -24.7686 -18.2099 170.723 -61.7572 -1.98785e-016 -0 18.4106 0.122196 -0.203054 90 -1.59028e-015 2.38542e-015 
36.9013 85.2376 -74.78 -89.5567 -13.05 -174.246 5.27462 -2.56312 -2.25851 10.4609 -5.32089 -4.27809 10.4609 -5.32089 -4.2781 -8.30198e-012 -9.0191e-006 -5.27751e-005 -2.0167 -18.317 8.36621 179.482 1.77656 -73.7519 -17.9712 8.30936 56.5726 -87.8155 1.59028e-015 3.18055e-015 -70.7363 -49.2243 -78.4994 -178.201 7.68685 76.7853 -26.511 -20.6013 -62.035 -47.5937 -6.36111e-015 -7.95139e-016 -40.2673 46.3879 48.4985 4.47833 13.7282 -176.381 -33.5628 6.36111e-015 2.38542e-015 8.60553 3.64557 -7.49743 90 -1.59028e-015 6.36111e-015 -26.0926 -19.8197 173.683 -50.4641 -1.19271e-015 -1.59028e-015 19.8227 -0.565657 1.28377 90 3.18055e-015 -7.95139e-016 
42.8532 86.4947 -75.2198 -89.8409 -11.0739 -174.392 4.99917 -2.72622 -2.0551 9.91505 -5.61926 -3.87108 9.91505 -5.61926 -3.87109 -8.3129e-012 -9.0191e-006 -5.27751e-005 -2.54114 -17.2963 6.14857 179.715 0.977281 -73.7625 -20.2988 11.7213 57.956 -94.9518 0 3.18055e-015 -65.9681 -49.3665 -71.5823 -178.226 8.26742 77.8457 -28.2181 -24.4218 -63.2782 -51.908 6.36111e-015 3.57812e-015 -38.4998 48.8806 47.5215 9.30388 15.3866 -176.078 -28.6981 -3.18055e-015 -6.36111e-015 -0.541108 4.78781 -9.84523 90 0 3.18055e-015 -24.3747 -21.2373 177.043 -36.3798 2.38542e-015 1.59028e-015 20.8616 -3.45604 7.3851 90 0 -7.95139e-016 
49.2417 87.2228 -75.7225 -89.5957 -9.43347 -173.217 4.77093 -2.86649 -2.04049 9.45529 -5.89083 -3.84233 9.45529 -5.89083 -3.84233 -8.30813e-012 -9.0191e-006 -5.27751e-005 -2.7205 -16.5469 3.55376 179.866 0.465531 -73.9538 -22.1053 15.5304 59.2399 -99.0883 7.95139e-016 -0 -62.0306 -49.6834 -66.1496 -178.247 8.57969 78.408 -28.9786 -26.8067 -64.3047 -54.5949 -9.54166e-015 7.95139e-016 -36.1578 50.6733 44.8345 13.9286 15.0427 -176.876 -25.1254 -3.18055e-015 -3.97569e-015 -11.1318 6.4809 -13.3838 90 0 -0 -21.2372 -22.3916 179.298 -23.9387 3.18056e-015 6.36111e-015 22.0897 -5.8328 12.5483 90 -3.18055e-015 1.59028e-015 
55.7996 87.1249 -76.2395 -88.7068 -8.45231 -171.449 4.60322 -3.00309 -2.02958 9.11669 -6.1574 -3.81901 9.11668 -6.1574 -3.81902 -8.30862e-012 -9.0191e-006 -5.27751e-005 -2.37992 -16.1369 0.609994 179.893 0.372358 -74.0203 -22.831 19.0028 60.3542 -99.1644 0 -0 -60.7259 -50.6187 -64.7419 -178.239 8.80463 78.6413 -28.9561 -27.6858 -64.6413 -55.9128 6.36111e-015 -1.39149e-015 -31.8997 52.5663 40.5685 16.8246 9.99509 -178.209 -26.1858 -3.18055e-015 -1.19271e-015 -19.3127 6.94535 -14.3255 90 -3.18055e-015 -1.59028e-015 -18.2972 -23 -179.519 -18.4554 1.59028e-015 -0 21.0564 -5.27796 11.4192 90 0 1.59028e-015 
62.1749 86.2102 -76.7262 -87.5394 -6.88321 -169.899 4.522 -2.83444 -1.98443 8.96023 -5.81467 -3.74571 8.96023 -5.81467 -3.74572 -8.30312e-012 -9.0191e-006 -5.27751e-005 -1.47509 -16.4038 -1.81993 179.854 0.502 -73.823 -22.0933 21.6116 60.6144 -95.7647 -3.18055e-015 -6.36111e-015 -58.0438 -53.1362 -63.0293 -178.19 8.93851 78.5039 -28.0374 -27.0165 -64.3028 -55.9013 0 1.78906e-015 -32.5498 52.1841 40.8847 16.7808 2.4678 -179.997 -33.1239 0 -0 -23.0079 8.22495 -16.9617 90 0 -7.95139e-016 -15.868 -19.3745 -178.402 -20.4953 0 -0 19.5435 -2.3505 5.20717 90 0 -1.59028e-015 
68.1677 84.7125 -76.9119 -86.4667 -4.68242 -169.878 4.58333 -2.42083 -1.67539 9.10665 -4.96648 -3.15592 9.10665 -4.96649 -3.15593 -8.30609e-012 -9.0191e-006 -5.27751e-005 -1.15665 -16.8722 -3.77184 179.984 0.0507995 -72.9571 -20.1489 23.2224 59.6349 -89.9666 3.18055e-015 -3.18055e-015 -55.4733 -53.5437 -60.5903 -178.065 8.87191 77.6445 -26.5743 -24.4032 -62.6101 -54.3685 -6.36111e-015 3.18055e-015 -37.278 50.8504 45.379 13.469 -0.592956 179.946 -44.8257 -1.59028e-015 -1.59028e-015 -17.6891 10.3225 -21.5248 90 3.18055e-015 -9.93923e-017 -16.232 -12.1267 -176.729 -30.6589 5.96354e-016 3.18056e-015 21.5457 1.12416 -2.09909 90 1.59028e-015 -1.59028e-015 
74.2043 83.3498 -76.8423 -84.5794 -2.53545 -171.347 5.02777 -2.08796 -1.16508 10.0224 -4.2692 -2.14453 10.0224 -4.2692 -2.14454 -8.30887e-012 -9.0191e-006 -5.27751e-005 -1.80986 -16.6933 -4.70936 -179.826 -0.524205 -71.6462 -16.0454 24.0454 57.9353 -82.8862 6.36111e-015 3.18055e-015 -55.2613 -50.6328 -58.9695 -178.009 7.97588 75.9364 -25.3424 -19.3068 -59.9249 -51.6322 3.18055e-015 -3.97569e-015 -42.1554 48.4677 50.0136 8.9923 -0.838798 -178.288 -57.7409 0 3.97569e-016 -11.6488 9.83521 -20.4196 90 -6.36111e-015 1.49088e-015 -12.9784 -10.7536 -174.516 -36.9712 -8.94531e-016 6.36111e-015 25.7238 1.50852 -2.92408 90 -3.18055e-015 -0 
